<svg width="225" height="216" viewBox="0 0 225 216" fill="none" xmlns="http://www.w3.org/2000/svg">
<path d="M76.6662 210.045C55.5144 202.762 37.5951 191.363 23.8307 174.036C-8.87706 132.862 -7.85603 78.007 26.5227 38.2268C46.6893 14.8917 72.6019 2.55481 103.203 0.307031C152.677 -3.32702 196.182 25.6674 213.095 67.7047C226.931 102.092 223.185 135.114 203.752 166.501C202.367 168.738 200.917 170.934 199.138 173.71C202.436 174.385 205.16 174.815 207.815 175.508C220.192 178.74 227.096 189.374 224.147 200.549C222.135 208.17 214.55 213.459 205.064 213.976C193.129 214.627 182.206 211.422 172.636 204.505C168.233 201.323 164.872 201.243 160.074 203.592C133.33 216.689 105.555 218.478 76.6662 210.045ZM147.932 12.0863C106.033 -2.46074 67.9128 4.22926 36.2268 35.4052C8.71842 62.4707 -0.398339 95.9363 10.9384 133.532C23.9666 176.737 63.9611 203.107 108.072 204.257C126.395 204.735 143.842 200.271 159.757 191.156C166.437 187.33 171.294 188.266 176.787 193.037C184.775 199.974 194.325 202.964 204.978 202.541C209.461 202.363 211.746 200.681 211.687 195.922C211.626 190.995 209.1 189.665 204.643 189.885C196.858 190.269 189.829 187.907 183.727 183.083C178.866 179.239 179.054 178.647 183.304 174.354C204.819 152.624 215.664 126.346 212.168 95.9721C207.581 56.1083 185.648 28.2181 147.932 12.0863Z" fill="#BF9C86"/>
<path d="M119.196 18.1863C156.187 21.663 191.793 49.6956 198.255 90.6935C202.192 115.677 196.458 137.873 180.46 157.451C175.101 164.009 172.812 164.349 165.938 159.266C151.069 148.271 136.207 137.266 121.357 126.243C110.275 118.017 100.664 118.188 90.0825 126.996C85.1696 131.085 80.4116 135.36 75.2117 139.874C79.1491 142.349 81.8252 140.999 84.2179 139.176C86.727 137.264 88.9159 134.938 91.353 132.924C98.6167 126.921 103.523 126.551 111.199 132.012C118.798 137.418 126.12 143.214 133.566 148.836C141.411 154.759 149.263 160.671 157.099 166.605C158.158 167.408 159.195 168.257 160.144 169.185C161.642 170.649 162.966 172.337 161.286 174.389C159.792 176.214 157.705 176.221 155.863 175.004C151.975 172.434 148.13 169.786 144.402 166.99C132.54 158.094 120.732 149.128 108.921 140.164C101.483 134.518 100.553 134.482 93.6557 140.635C87.6351 146.007 81.2355 150.219 72.5916 148.912C69.3544 148.423 66.1336 147.784 64.903 144.325C63.6499 140.802 66.2714 138.855 68.5928 136.867C74.9184 131.45 81.022 125.757 87.5406 120.586C99.0532 111.452 111.7 111.773 123.192 121.026C126.303 123.531 129.484 125.955 132.704 128.318C134.478 129.62 136.49 129.809 138.255 128.343C140.214 126.716 140.897 124.593 140.036 122.068C139.059 119.202 136.968 117.218 134.461 115.899C130.006 113.554 126.017 110.594 122.039 107.564C116.72 103.513 110.881 102.298 104.159 103.572C82.7529 107.63 61.0649 107.107 39.4146 106.969C35.2485 106.942 31.0797 107.011 26.9167 106.886C21.341 106.718 19.3894 104.562 19.9142 99.0331C21.4892 82.441 26.3915 66.9537 36.8165 53.7772C57.7075 27.3722 85.1222 15.5083 119.196 18.1863Z" fill="#A27864"/>
<path d="M119.315 188.317C116.521 193.08 112.85 191.034 109.633 189.394C106.71 187.903 104.026 185.823 101.51 183.682C97.522 180.287 93.9713 180.184 90.1804 184.007C88.7059 185.493 86.7237 186.58 84.8025 187.489C83.1629 188.264 81.5002 187.673 80.4145 186.148C79.2523 184.515 80.3945 183.38 81.4506 182.279C81.6802 182.04 81.9219 181.812 82.1642 181.586C96.8819 167.831 94.3918 168.499 109.081 179.901C112.484 182.542 115.807 185.286 119.315 188.317Z" fill="#A27864"/>
<path d="M125.366 167.106C131.228 171.55 136.82 175.756 142.364 180.024C143.483 180.886 145.198 181.65 144.416 183.531C143.796 185.023 142.346 185.612 140.79 185.839C138.697 186.144 136.828 185.592 135.155 184.332C127.838 178.821 120.519 173.312 113.213 167.786C111.437 166.443 110.189 164.69 109.554 162.549C108.926 160.434 109.233 158.512 111.231 157.286C113.39 155.959 115.14 156.965 116.385 158.748C118.719 162.091 121.709 164.679 125.366 167.106Z" fill="#A27864"/>
</svg>
